<svg width="17" height="16" viewBox="0 0 17 16" fill="none" xmlns="http://www.w3.org/2000/svg">
    <path d="M8.5 0.5C12.6421 0.5 16 3.85786 16 8C16 12.1421 12.6421 15.5 8.5 15.5C4.35786 15.5 1 12.1421 1 8C1 3.85786 4.35786 0.5 8.5 0.5ZM8.5 2C5.18629 2 2.5 4.68629 2.5 8C2.5 11.3137 5.18629 14 8.5 14C11.8137 14 14.5 11.3137 14.5 8C14.5 4.68629 11.8137 2 8.5 2ZM8.47168 9.7373C9.16172 9.73752 9.72146 10.2973 9.72168 10.9873C9.72168 11.6775 9.16185 12.2371 8.47168 12.2373C7.78132 12.2373 7.22168 11.6777 7.22168 10.9873C7.2219 10.2971 7.78146 9.7373 8.47168 9.7373ZM9.27148 8.51855H7.70508L7.48828 4.01855H9.48828L9.27148 8.51855Z" fill="#F58F8F"/>
</svg>
